<?xml version="1.0" encoding="utf-8"?>
<svg xmlns="http://www.w3.org/2000/svg" width="134" height="149" viewBox="0 0 134 149"><g transform="translate(-326 -14101)"><rect width="2.25" height="2.25" transform="translate(326 14101)" fill="#bbb"/><rect width="2.25" height="2.28" transform="translate(326 14115.66)" fill="#bbb"/><rect width="2.25" height="2.28" transform="translate(326 14130.34)" fill="#bbb"/><rect width="2.25" height="2.25" transform="translate(326 14145.03)" fill="#bbb"/><rect width="2.25" height="2.25" transform="translate(326 14159.69)" fill="#bbb"/><rect width="2.25" height="2.25" transform="translate(326 14174.37)" fill="#bbb"/><rect width="2.25" height="2.25" transform="translate(326 14189.06)" fill="#bbb"/><rect width="2.25" height="2.25" transform="translate(326 14203.72)" fill="#bbb"/><rect width="2.25" height="2.28" transform="translate(326 14218.38)" fill="#bbb"/><rect width="2.25" height="2.28" transform="translate(326 14233.06)" fill="#bbb"/><rect width="2.25" height="2.25" transform="translate(326 14247.75)" fill="#bbb"/><rect width="2.25" height="2.25" transform="translate(340.63 14101)" fill="#bbb"/><rect width="2.25" height="2.28" transform="translate(340.63 14115.66)" fill="#bbb"/><rect width="2.25" height="2.28" transform="translate(340.63 14130.34)" fill="#bbb"/><rect width="2.25" height="2.25" transform="translate(340.63 14145.03)" fill="#bbb"/><rect width="2.25" height="2.25" transform="translate(340.63 14159.69)" fill="#bbb"/><rect width="2.25" height="2.25" transform="translate(340.63 14174.37)" fill="#bbb"/><rect width="2.25" height="2.25" transform="translate(340.63 14189.06)" fill="#bbb"/><rect width="2.25" height="2.25" transform="translate(340.63 14203.72)" fill="#bbb"/><rect width="2.25" height="2.28" transform="translate(340.63 14218.38)" fill="#bbb"/><rect width="2.25" height="2.28" transform="translate(340.63 14233.06)" fill="#bbb"/><rect width="2.25" height="2.25" transform="translate(340.63 14247.75)" fill="#bbb"/><rect width="2.25" height="2.25" transform="translate(355.28 14101)" fill="#bbb"/><rect width="2.25" height="2.28" transform="translate(355.28 14115.66)" fill="#bbb"/><rect width="2.25" height="2.28" transform="translate(355.28 14130.34)" fill="#bbb"/><rect width="2.25" height="2.25" transform="translate(355.28 14145.03)" fill="#bbb"/><rect width="2.25" height="2.25" transform="translate(355.28 14159.69)" fill="#bbb"/><rect width="2.25" height="2.25" transform="translate(355.28 14174.37)" fill="#bbb"/><rect width="2.25" height="2.25" transform="translate(355.28 14189.06)" fill="#bbb"/><rect width="2.25" height="2.25" transform="translate(355.28 14203.72)" fill="#bbb"/><rect width="2.25" height="2.28" transform="translate(355.28 14218.38)" fill="#bbb"/><rect width="2.25" height="2.28" transform="translate(355.28 14233.06)" fill="#bbb"/><rect width="2.25" height="2.25" transform="translate(355.28 14247.75)" fill="#bbb"/><rect width="2.25" height="2.25" transform="translate(369.94 14101)" fill="#bbb"/><rect width="2.25" height="2.28" transform="translate(369.94 14115.66)" fill="#bbb"/><rect width="2.25" height="2.28" transform="translate(369.94 14130.34)" fill="#bbb"/><rect width="2.25" height="2.25" transform="translate(369.94 14145.03)" fill="#bbb"/><rect width="2.25" height="2.25" transform="translate(369.94 14159.69)" fill="#bbb"/><rect width="2.25" height="2.25" transform="translate(369.94 14174.37)" fill="#bbb"/><rect width="2.25" height="2.25" transform="translate(369.94 14189.06)" fill="#bbb"/><rect width="2.25" height="2.25" transform="translate(369.94 14203.72)" fill="#bbb"/><rect width="2.25" height="2.28" transform="translate(369.94 14218.38)" fill="#bbb"/><rect width="2.25" height="2.28" transform="translate(369.94 14233.06)" fill="#bbb"/><rect width="2.25" height="2.25" transform="translate(369.94 14247.75)" fill="#bbb"/><rect width="2.25" height="2.25" transform="translate(384.56 14101)" fill="#bbb"/><rect width="2.25" height="2.28" transform="translate(384.56 14115.66)" fill="#bbb"/><rect width="2.25" height="2.28" transform="translate(384.56 14130.34)" fill="#bbb"/><rect width="2.25" height="2.25" transform="translate(384.56 14145.03)" fill="#bbb"/><rect width="2.25" height="2.25" transform="translate(384.56 14159.69)" fill="#bbb"/><rect width="2.25" height="2.25" transform="translate(384.56 14174.37)" fill="#bbb"/><rect width="2.25" height="2.25" transform="translate(384.56 14189.06)" fill="#bbb"/><rect width="2.25" height="2.25" transform="translate(384.56 14203.72)" fill="#bbb"/><rect width="2.25" height="2.28" transform="translate(384.56 14218.38)" fill="#bbb"/><rect width="2.25" height="2.28" transform="translate(384.56 14233.06)" fill="#bbb"/><rect width="2.25" height="2.25" transform="translate(384.56 14247.75)" fill="#bbb"/><rect width="2.25" height="2.25" transform="translate(399.19 14101)" fill="#bbb"/><rect width="2.25" height="2.28" transform="translate(399.19 14115.66)" fill="#bbb"/><rect width="2.25" height="2.28" transform="translate(399.19 14130.34)" fill="#bbb"/><rect width="2.25" height="2.25" transform="translate(399.19 14145.03)" fill="#bbb"/><rect width="2.25" height="2.25" transform="translate(399.19 14159.69)" fill="#bbb"/><rect width="2.25" height="2.25" transform="translate(399.19 14174.37)" fill="#bbb"/><rect width="2.25" height="2.25" transform="translate(399.19 14189.06)" fill="#bbb"/><rect width="2.25" height="2.25" transform="translate(399.19 14203.72)" fill="#bbb"/><rect width="2.25" height="2.28" transform="translate(399.19 14218.38)" fill="#bbb"/><rect width="2.25" height="2.28" transform="translate(399.19 14233.06)" fill="#bbb"/><rect width="2.25" height="2.25" transform="translate(399.19 14247.75)" fill="#bbb"/><rect width="2.25" height="2.25" transform="translate(413.81 14101)" fill="#bbb"/><rect width="2.25" height="2.28" transform="translate(413.81 14115.66)" fill="#bbb"/><rect width="2.25" height="2.28" transform="translate(413.81 14130.34)" fill="#bbb"/><rect width="2.25" height="2.25" transform="translate(413.81 14145.03)" fill="#bbb"/><rect width="2.25" height="2.25" transform="translate(413.81 14159.69)" fill="#bbb"/><rect width="2.25" height="2.25" transform="translate(413.81 14174.37)" fill="#bbb"/><rect width="2.25" height="2.25" transform="translate(413.81 14189.06)" fill="#bbb"/><rect width="2.25" height="2.25" transform="translate(413.81 14203.72)" fill="#bbb"/><rect width="2.25" height="2.28" transform="translate(413.81 14218.38)" fill="#bbb"/><rect width="2.25" height="2.28" transform="translate(413.81 14233.06)" fill="#bbb"/><rect width="2.25" height="2.25" transform="translate(413.81 14247.75)" fill="#bbb"/><rect width="2.25" height="2.25" transform="translate(428.47 14101)" fill="#bbb"/><rect width="2.25" height="2.28" transform="translate(428.47 14115.66)" fill="#bbb"/><rect width="2.25" height="2.28" transform="translate(428.47 14130.34)" fill="#bbb"/><rect width="2.25" height="2.25" transform="translate(428.47 14145.03)" fill="#bbb"/><rect width="2.25" height="2.25" transform="translate(428.47 14159.69)" fill="#bbb"/><rect width="2.25" height="2.25" transform="translate(428.47 14174.37)" fill="#bbb"/><rect width="2.25" height="2.25" transform="translate(428.47 14189.06)" fill="#bbb"/><rect width="2.25" height="2.25" transform="translate(428.47 14203.72)" fill="#bbb"/><rect width="2.25" height="2.28" transform="translate(428.47 14218.38)" fill="#bbb"/><rect width="2.25" height="2.28" transform="translate(428.47 14233.06)" fill="#bbb"/><rect width="2.25" height="2.25" transform="translate(428.47 14247.75)" fill="#bbb"/><rect width="2.25" height="2.25" transform="translate(443.12 14101)" fill="#bbb"/><rect width="2.25" height="2.28" transform="translate(443.12 14115.66)" fill="#bbb"/><rect width="2.25" height="2.28" transform="translate(443.12 14130.34)" fill="#bbb"/><rect width="2.25" height="2.25" transform="translate(443.12 14145.03)" fill="#bbb"/><rect width="2.25" height="2.25" transform="translate(443.12 14159.69)" fill="#bbb"/><rect width="2.25" height="2.25" transform="translate(443.12 14174.37)" fill="#bbb"/><rect width="2.25" height="2.25" transform="translate(443.12 14189.06)" fill="#bbb"/><rect width="2.25" height="2.25" transform="translate(443.12 14203.72)" fill="#bbb"/><rect width="2.25" height="2.28" transform="translate(443.12 14218.38)" fill="#bbb"/><rect width="2.25" height="2.28" transform="translate(443.12 14233.06)" fill="#bbb"/><rect width="2.25" height="2.25" transform="translate(443.12 14247.75)" fill="#bbb"/><rect width="2.25" height="2.25" transform="translate(457.75 14101)" fill="#bbb"/><rect width="2.25" height="2.28" transform="translate(457.75 14115.66)" fill="#bbb"/><rect width="2.25" height="2.28" transform="translate(457.75 14130.34)" fill="#bbb"/><rect width="2.25" height="2.25" transform="translate(457.75 14145.03)" fill="#bbb"/><rect width="2.25" height="2.25" transform="translate(457.75 14159.69)" fill="#bbb"/><rect width="2.25" height="2.25" transform="translate(457.75 14174.37)" fill="#bbb"/><rect width="2.25" height="2.25" transform="translate(457.75 14189.06)" fill="#bbb"/><rect width="2.25" height="2.25" transform="translate(457.75 14203.72)" fill="#bbb"/><rect width="2.25" height="2.28" transform="translate(457.75 14218.38)" fill="#bbb"/><rect width="2.25" height="2.28" transform="translate(457.75 14233.06)" fill="#bbb"/><rect width="2.25" height="2.25" transform="translate(457.75 14247.75)" fill="#bbb"/></g></svg>