<svg xmlns="http://www.w3.org/2000/svg" xmlns:xlink="http://www.w3.org/1999/xlink" width="1296" height="479" viewBox="0 0 1296 479">
  <defs>
    <clipPath id="clip-path">
      <rect id="Rectangle_33" data-name="Rectangle 33" width="1296" height="479" transform="translate(282 1822)" fill="#fff" stroke="#707070" stroke-width="1"/>
    </clipPath>
  </defs>
  <g id="Pattern" transform="translate(-282 -1822)" clip-path="url(#clip-path)">
    <g id="Group_12" data-name="Group 12">
      <path id="Path_30" data-name="Path 30" d="M1547.22,920.542c67.07,88.788,18.49,150.158,15.97,223.848-2.67,78.4,51.18,184.68-31.14,220.56-83.9,36.58-242.07,15.26-389.35-37.25-134.44-47.92-217.778-159.4-347.3-225.35-157.2-80.05-352.271-90.92-475.483-193.6-123.72-103.1-150.186-222.086-112.046-296,36.144-70.042,206.109-45.78,304.393-76.748C611.735,504.667,634.618,399.9,785.946,430.617c151.1,30.669,285.764,157.681,424.814,247.168C1333.1,756.517,1479.07,830.314,1547.22,920.542Z" transform="translate(138 1397)" fill="none" stroke="#ebf1ff" stroke-width="1" fill-rule="evenodd"/>
      <path id="Path_31" data-name="Path 31" d="M1476.66,918.529c59.53,78.823,16.4,133.311,14.17,198.731-2.38,69.61,45.44,163.96-27.65,195.82-74.48,32.47-214.91,13.54-345.67-33.07-119.346-42.55-193.336-141.52-308.328-200.07-139.562-71.07-312.746-80.723-422.134-171.876C277.209,816.534,253.713,710.9,287.574,645.276c32.088-62.183,182.983-40.644,270.24-68.136,88.312-27.825,108.628-120.837,242.977-93.567,134.147,27.228,253.7,139.989,377.149,219.436C1286.55,772.907,1416.15,838.425,1476.66,918.529Z" transform="translate(138 1397)" fill="none" stroke="#ebf1ff" stroke-width="1" fill-rule="evenodd"/>
      <path id="Path_32" data-name="Path 32" d="M1403.73,916.449c51.76,68.528,14.26,115.891,12.32,172.771-2.07,60.52,39.5,142.55-24.04,170.25-64.75,28.23-186.84,11.77-300.52-28.76-103.763-36.99-168.089-123.03-268.062-173.93-121.335-61.786-271.9-70.181-367-149.43-95.494-79.575-115.922-171.417-86.483-228.466,27.9-54.062,159.085-35.335,234.946-59.237,76.778-24.191,94.44-105.055,211.242-81.347C932.759,561.972,1036.7,660.006,1144.02,729.077,1238.45,789.846,1351.12,846.807,1403.73,916.449Z" transform="translate(138 1397)" fill="none" stroke="#ebf1ff" stroke-width="1" fill-rule="evenodd"/>
      <path id="Path_33" data-name="Path 33" d="M1336.12,914.52c44.55,58.985,12.28,99.76,10.61,148.71-1.78,52.1,34,122.7-20.69,146.54-55.74,24.3-160.83,10.13-258.68-24.75-89.307-31.84-144.676-105.9-230.726-149.72C732.2,982.127,602.6,974.9,520.742,906.689,438.547,838.2,420.964,759.144,446.3,710.04c24.013-46.533,136.931-30.415,202.227-50.988,66.086-20.823,81.288-90.425,181.824-70.019C930.739,609.409,1020.2,693.79,1112.58,753.242,1193.86,805.548,1290.84,854.577,1336.12,914.52Z" transform="translate(138 1397)" fill="none" stroke="#ebf1ff" stroke-width="1" fill-rule="evenodd"/>
      <path id="Path_34" data-name="Path 34" d="M1265.72,912.512c37.04,49.047,10.21,82.949,8.82,123.658-1.48,43.32,28.27,102.02-17.21,121.85-46.34,20.2-133.72,8.42-215.09-20.58-74.262-26.48-120.3-88.06-191.855-124.49-86.841-44.222-194.6-50.23-262.669-106.95-68.347-56.954-82.968-122.687-61.9-163.518,19.967-38.693,113.861-25.29,168.156-42.4,54.951-17.314,67.592-75.19,151.19-58.221,83.472,16.942,157.866,87.107,234.676,136.542C1147.43,821.9,1228.07,862.668,1265.72,912.512Z" transform="translate(138 1397)" fill="none" stroke="#ebf1ff" stroke-width="1" fill-rule="evenodd"/>
    </g>
  </g>
</svg>
