<svg xmlns="http://www.w3.org/2000/svg" width="1001" height="763" viewBox="0 0 1001 763" fill="none"><path fill-rule="evenodd" clip-rule="evenodd" d="M352.898 758.819C352.898 758.819 827.743 837.624 1000.26 239C1000.26 239 600.101 711.182 226 607.446L352.898 758.819Z" fill="url(#shape_slice_left2_1)" fill-opacity="0.12"></path><path fill-rule="evenodd" clip-rule="evenodd" d="M257.898 622.819C257.898 622.819 732.743 701.624 905.263 103C905.263 103 505.101 575.182 131 471.446L257.898 622.819Z" fill="url(#shape_slice_left2_2)" fill-opacity="0.12"></path><path fill-rule="evenodd" clip-rule="evenodd" d="M126.898 519.819C126.898 519.819 601.743 598.624 774.263 -0.00012207C774.263 -0.00012207 374.101 472.182 0 368.446L126.898 519.819Z" fill="url(#shape_slice_left2_3)" fill-opacity="0.12"></path><defs><linearGradient id="shape_slice_left2_1" x1="771.263" y1="762.242" x2="613.263" y2="546.242" gradientUnits="userSpaceOnUse"><stop stop-color="#3671FC"></stop><stop offset="0.992404" stop-color="#3671FC" stop-opacity="0"></stop></linearGradient><linearGradient id="shape_slice_left2_2" x1="676.263" y1="626.242" x2="518.263" y2="410.242" gradientUnits="userSpaceOnUse"><stop stop-color="#3671FC"></stop><stop offset="0.992404" stop-color="#3671FC" stop-opacity="0"></stop></linearGradient><linearGradient id="shape_slice_left2_3" x1="545.263" y1="523.242" x2="387.263" y2="307.242" gradientUnits="userSpaceOnUse"><stop stop-color="#3671FC"></stop><stop offset="0.992404" stop-color="#3671FC" stop-opacity="0"></stop></linearGradient></defs></svg>