<svg id="Layer_1" data-name="Layer 1" xmlns="http://www.w3.org/2000/svg" viewBox="0 0 1073.18 332.57"><path d="M0,170.94v-9a41.58,41.58,0,0,0,41.57-41.57h8.32A41.59,41.59,0,0,0,91.42,162h0v9a41.58,41.58,0,0,0-41.57,41.57H41.57A41.59,41.59,0,0,0,0,170.94Zm41.57-66.18h71.5c34.92,0,59.87,24.94,59.87,61.53S148,227.81,113.07,227.81H41.57V332.57H71.5V254.42h41.57c50.22,0,89.8-39.58,89.8-88.13s-39.58-88.14-89.8-88.14H41.57Z"/><path d="M310.29,77.82c26.27,0,49.55,13.3,64.18,34.26V83.14H404.4V249.43H374.47V220.49c-15,21-38.24,34.26-64.18,34.26-49.23,0-90.8-38.91-90.8-88.46S261.06,77.82,310.29,77.82Zm0,150.32c38.57,0,64.18-26.6,64.18-61.85,0-35.59-25.27-61.86-64.18-61.86-34.59,0-60.87,24.94-60.87,61.86s26.28,61.85,60.87,61.85Z"/><path d="M515.14,77.82c26.28,0,49.56,13.3,64.19,34.26V0h29.93V249.43H579.33V220.49c-14.63,21-37.91,34.26-64.19,34.26-49.22,0-90.79-38.91-90.79-88.46S465.92,77.82,515.14,77.82Zm0,150.32c38.91,0,64.19-26.27,64.19-61.85s-25.28-61.86-64.19-61.86c-34.58,0-60.86,24.94-60.86,61.86s26.28,61.85,60.86,61.85Z"/><path d="M723.33,77.82c26.27,0,49.55,13.3,64.19,34.26V0h29.93V249.43H787.52V220.49c-14.64,21-37.92,34.26-64.19,34.26-49.22,0-90.79-38.91-90.79-88.46S674.11,77.82,723.33,77.82Zm0,150.32c38.91,0,64.19-26.27,64.19-61.85s-25.28-61.86-64.19-61.86c-34.59,0-60.86,24.94-60.86,61.86s26.27,61.85,60.86,61.85Z"/><path d="M847.37,249.43V0h29.94V249.43Z"/><path d="M988.05,78.15c57.53,0,85.13,44.9,85.13,99.78H929.52c4.65,32.25,28.6,53.21,58.53,53.21,20.62,0,36.58-9.32,48.55-27.61h32.26c-11.31,25.61-40.9,50.89-80.81,50.89-50.22,0-89.13-40.25-89.13-88.13S937.83,78.15,988.05,78.15Zm55.2,76.5c0-27.28-23.28-53.22-55.2-53.22-29.93,0-53.88,21-58.53,53.22Z"/></svg>