<svg width="114" height="27" viewBox="0 0 114 27" fill="none" xmlns="http://www.w3.org/2000/svg"><path d="M59.4687 7.43017H55.7871L53.1819 12.0086H51.8408L51.7981 2.10004H48.313V19.9952H51.7981L51.8408 15.0837H53.1733L56.6328 19.9952H60.4937L55.9836 13.4863L59.4687 7.43017Z" fill="black"/><path d="M85.8459 13.3241C85.1379 12.8659 84.3705 12.5066 83.5652 12.2564L82.7964 11.9659L82.5914 11.8891C82.1131 11.7097 81.6091 11.5218 81.592 11.0349C81.5875 10.8906 81.6196 10.7476 81.6853 10.6192C81.7511 10.4907 81.8483 10.381 81.9679 10.3003C82.2202 10.1263 82.5159 10.0258 82.822 10.0099C83.4895 9.96378 84.151 10.161 84.6842 10.5651L84.7781 10.6249L86.6402 8.48086L86.5463 8.40398C86.3145 8.19731 86.0627 8.01419 85.7946 7.8573C85.3144 7.58254 84.7919 7.38915 84.2485 7.28499C83.4657 7.11846 82.6567 7.11846 81.8739 7.28499C81.1171 7.38516 80.3991 7.67942 79.7897 8.13918C79.4 8.44412 79.0741 8.82287 78.8309 9.25377C78.5876 9.68467 78.4315 10.1593 78.3717 10.6505C78.2649 11.5369 78.4901 12.4316 79.0038 13.1618C79.6863 13.9175 80.5784 14.4528 81.5664 14.6993L81.7201 14.7506L82.0704 14.8702C83.3345 15.2973 83.6933 15.4681 83.8983 15.7244C83.9937 15.8533 84.0473 16.0083 84.0521 16.1685C84.0521 16.775 83.3089 17.0227 82.805 17.1765C82.4526 17.2427 82.0903 17.2359 81.7407 17.1565C81.391 17.0772 81.0613 16.927 80.772 16.7152C80.3037 16.4021 79.9029 15.9984 79.5932 15.5279C79.3967 15.7329 77.4663 17.6377 77.5004 17.6719L77.5602 17.7573C78.4906 18.9219 79.7937 19.7303 81.2503 20.0465C81.5832 20.1109 81.9199 20.1537 82.2583 20.1747H82.6085C83.7591 20.1988 84.8864 19.848 85.8202 19.1753C86.4518 18.7285 86.9365 18.1042 87.2126 17.3815C87.3805 16.8963 87.44 16.3802 87.3869 15.8696C87.3338 15.359 87.1693 14.8662 86.9051 14.426C86.635 13.987 86.2738 13.6113 85.8459 13.3241V13.3241Z" fill="black"/><path d="M97.1042 13.324C96.3992 12.8658 95.6347 12.5066 94.8321 12.2563L94.0547 11.9658L93.8583 11.889C93.3714 11.7096 92.876 11.5217 92.8503 11.0348C92.8526 10.8908 92.8886 10.7494 92.9554 10.6219C93.0221 10.4943 93.1178 10.3841 93.2347 10.3002C93.4871 10.1262 93.7828 10.0257 94.0889 10.0098C94.7561 9.96523 95.4171 10.1623 95.951 10.565L96.0364 10.6248L97.8986 8.48076L97.8132 8.40388C97.5799 8.19518 97.325 8.01192 97.0529 7.8572C96.5756 7.58274 96.056 7.38935 95.5154 7.28489C94.7298 7.11817 93.9179 7.11817 93.1322 7.28489C92.3762 7.38803 91.6589 7.682 91.048 8.13908C90.6557 8.44117 90.3271 8.81779 90.0808 9.24729C89.8345 9.67679 89.6755 10.1507 89.613 10.6418C89.5011 11.5286 89.7268 12.425 90.2451 13.1532C90.9275 13.9089 91.8197 14.4441 92.8076 14.6907L92.9528 14.7419L93.3031 14.8615C94.5758 15.2886 94.9346 15.4595 95.1396 15.7157C95.238 15.8425 95.2893 15.9995 95.2848 16.1599C95.2848 16.7664 94.5502 17.0141 94.0462 17.1678C93.6924 17.2342 93.3288 17.2275 92.9778 17.1482C92.6267 17.0689 92.2956 16.9186 92.0047 16.7066C91.5402 16.3889 91.1402 15.986 90.8259 15.5193C90.638 15.7243 88.7075 17.6291 88.7332 17.6633L88.8015 17.7487C89.7318 18.9132 91.035 19.7217 92.4916 20.0379C92.8244 20.1028 93.1611 20.1456 93.4995 20.166H93.8497C95.0004 20.1901 96.1277 19.8394 97.0615 19.1666C97.6931 18.7199 98.1777 18.0955 98.4538 17.3728C98.6218 16.8877 98.6813 16.3716 98.6282 15.861C98.575 15.3503 98.4105 14.8575 98.1463 14.4174C97.8796 13.9837 97.5245 13.6112 97.1042 13.324V13.324Z" fill="black"/><path d="M70.9145 7.43019V8.66022H70.7607C69.8068 7.70504 68.5145 7.16481 67.1646 7.15685C66.3371 7.1405 65.5154 7.29862 64.753 7.62093C63.9907 7.94324 63.3047 8.4225 62.7399 9.02752C61.6008 10.3032 60.99 11.9646 61.0315 13.6743C60.9874 15.4127 61.597 17.1044 62.7399 18.415C63.2913 19.0204 63.9664 19.5001 64.7196 19.8214C65.4728 20.1427 66.2862 20.2981 67.1048 20.2772C68.4564 20.2518 69.7562 19.753 70.7778 18.8677H70.9145V19.9696H74.5362V7.43019H70.9145ZM71.0939 13.7426C71.1302 14.7531 70.7926 15.7416 70.1457 16.5187C69.8356 16.866 69.453 17.1408 69.025 17.3238C68.5969 17.5069 68.1339 17.5936 67.6686 17.5779C67.2173 17.5855 66.7702 17.4911 66.3605 17.3018C65.9508 17.1125 65.5891 16.8331 65.3025 16.4846C64.6632 15.6913 64.3352 14.6921 64.38 13.6743C64.3509 12.6871 64.6853 11.7236 65.3196 10.9665C65.6116 10.6232 65.9759 10.3487 66.3864 10.1626C66.797 9.97657 67.2435 9.88356 67.6942 9.89025C68.1564 9.87586 68.616 9.96416 69.0399 10.1488C69.4638 10.3334 69.8415 10.6098 70.1457 10.958C70.7925 11.7386 71.1299 12.7296 71.0939 13.7426Z" fill="black"/><path d="M110.309 7.43013V8.66015H110.156C109.204 7.70705 107.915 7.16699 106.568 7.15679C105.739 7.14137 104.917 7.29988 104.153 7.62209C103.39 7.9443 102.702 8.42306 102.135 9.02745C100.996 10.3031 100.385 11.9645 100.427 13.6742C100.382 15.4126 100.992 17.1043 102.135 18.415C102.686 19.0204 103.361 19.5 104.115 19.8213C104.868 20.1426 105.681 20.2981 106.5 20.2771C107.851 20.2517 109.151 19.7529 110.173 18.8677H110.309V19.9696H113.931V7.43013H110.309ZM110.489 13.7426C110.529 14.7537 110.191 15.7435 109.541 16.5187C109.231 16.8659 108.848 17.1408 108.42 17.3238C107.992 17.5068 107.529 17.5936 107.064 17.5779C106.612 17.5855 106.165 17.4911 105.756 17.3018C105.346 17.1124 104.984 16.8331 104.697 16.4845C104.058 15.6912 103.73 14.692 103.775 13.6742C103.746 12.687 104.08 11.7235 104.715 10.9665C105.007 10.6231 105.371 10.3486 105.781 10.1626C106.192 9.97651 106.639 9.88349 107.089 9.89018C107.551 9.87579 108.011 9.96409 108.435 10.1487C108.859 10.3334 109.236 10.6097 109.541 10.9579C110.191 11.7365 110.529 12.7289 110.489 13.7426Z" fill="black"/><path d="M24.5225 0C17.0035 0 11.0225 6.06646 11.0225 13.5C11.0225 21.019 17.0889 27 24.5225 27C31.956 27 38.0225 20.9335 38.0225 13.5C38.0225 6.06646 31.956 0 24.5225 0ZM24.5225 18.4557C21.7883 18.4557 19.4813 16.1487 19.4813 13.4146C19.4813 10.6804 21.7883 8.37342 24.5225 8.37342C27.2566 8.37342 29.5636 10.6804 29.5636 13.4146C29.4782 16.2342 27.2566 18.4557 24.5225 18.4557Z" fill="url(#paint0_linear)"/><path d="M10.9367 3.84497V23.4969H6.1519L0 3.84497H10.9367Z" fill="url(#paint1_linear)"/><defs><linearGradient id="paint0_linear" x1="24.5225" y1="0" x2="24.5225" y2="27" gradientUnits="userSpaceOnUse"><stop stop-color="#0160D1"/><stop offset="1" stop-color="#00479C"/></linearGradient><linearGradient id="paint1_linear" x1="5.46835" y1="3.84497" x2="5.46835" y2="23.4969" gradientUnits="userSpaceOnUse"><stop stop-color="#0160D1"/><stop offset="1" stop-color="#00479C"/></linearGradient></defs></svg>
