<svg xmlns="http://www.w3.org/2000/svg" width="83.493" height="25.138" viewBox="0 0 83.493 25.138"><g transform="translate(0.016 0.007)"><path d="M243.672,321.482c-4.833,3.573-11.862,5.477-17.925,5.477a32.5,32.5,0,0,1-21.909-8.348c-.439-.41-.059-.967.5-.644a43.516,43.516,0,0,0,38.633,2.372C243.789,320.018,244.463,320.9,243.672,321.482Z" transform="translate(-191.888 -301.829)" fill="#4d5072" fill-rule="evenodd"/><path d="M332.579,317.074c-.615-.791-4.1-.381-5.653-.176-.469.059-.557-.351-.117-.644,2.783-1.962,7.322-1.377,7.85-.732s-.146,5.214-2.753,7.381c-.41.322-.791.146-.615-.293C331.876,321.146,333.194,317.894,332.579,317.074Z" transform="translate(-278.774 -299.735)" fill="#4d5072" fill-rule="evenodd"/><path d="M211.74,265.853v-1.9a.446.446,0,0,1,.469-.469H220.7a.488.488,0,0,1,.5.469v1.611c0,.264-.234.615-.644,1.2l-4.393,6.268A9.542,9.542,0,0,1,221,274.054a.873.873,0,0,1,.439.732v2.021c0,.293-.293.615-.615.439a9.689,9.689,0,0,0-8.963.029.46.46,0,0,1-.615-.439V274.9a2.189,2.189,0,0,1,.322-1.289l5.1-7.293h-4.423a.488.488,0,0,1-.5-.469Zm-30.959,11.8H178.2a.529.529,0,0,1-.469-.439V263.979a.488.488,0,0,1,.5-.469h2.4a.477.477,0,0,1,.469.439v1.728h.059a3.536,3.536,0,0,1,6.737,0,3.671,3.671,0,0,1,3.573-2.46,3.631,3.631,0,0,1,2.988,1.465c.82,1.113.644,2.724.644,4.159v8.377a.488.488,0,0,1-.5.469h-2.548a.5.5,0,0,1-.469-.469v-7.029a17.567,17.567,0,0,0-.059-2.49A1.359,1.359,0,0,0,190,266.557a1.725,1.725,0,0,0-1.552,1.084,8.116,8.116,0,0,0-.234,2.548v7.029a.488.488,0,0,1-.5.469h-2.577a.5.5,0,0,1-.469-.469v-7.029c0-1.465.234-3.661-1.582-3.661-1.845,0-1.787,2.109-1.787,3.661v7.029a.514.514,0,0,1-.527.439Zm47.742-14.44c3.837,0,5.917,3.28,5.917,7.469,0,4.042-2.285,7.264-5.917,7.264-3.749,0-5.8-3.28-5.8-7.381C222.694,266.435,224.773,263.213,228.523,263.213Zm0,2.724c-1.9,0-2.021,2.607-2.021,4.218s-.029,5.067,1.992,5.067c1.992,0,2.109-2.783,2.109-4.481a12.817,12.817,0,0,0-.381-3.515,1.62,1.62,0,0,0-1.7-1.285Zm10.866,11.716h-2.577a.5.5,0,0,1-.469-.469V263.92a.506.506,0,0,1,.5-.439h2.4a.5.5,0,0,1,.469.381v2.021h.059c.732-1.816,1.728-2.665,3.515-2.665a3.411,3.411,0,0,1,3.017,1.552c.674,1.055.674,2.841.674,4.13v8.348a.482.482,0,0,1-.5.41H243.9a.533.533,0,0,1-.469-.41v-7.205c0-1.464.176-3.573-1.611-3.573a1.7,1.7,0,0,0-1.494,1.054,6.081,6.081,0,0,0-.41,2.519v7.147a.536.536,0,0,1-.527.469Zm-34.415-6.327a5.237,5.237,0,0,1-.469,2.753,2.073,2.073,0,0,1-1.787,1.172c-1,0-1.582-.762-1.582-1.875,0-2.2,1.962-2.607,3.837-2.607Zm2.607,6.3a.53.53,0,0,1-.615.059,6.467,6.467,0,0,1-1.494-1.728,5.131,5.131,0,0,1-4.247,1.875,3.668,3.668,0,0,1-3.866-4.013,4.384,4.384,0,0,1,2.753-4.218,18.289,18.289,0,0,1,4.862-.908v-.322a3.164,3.164,0,0,0-.322-1.875,1.734,1.734,0,0,0-1.435-.674,1.95,1.95,0,0,0-2.08,1.552c-.059.234-.2.469-.439.469l-2.49-.264a.451.451,0,0,1-.381-.527c.586-3.046,3.31-3.954,5.77-3.954a5.8,5.8,0,0,1,3.9,1.289c1.259,1.172,1.142,2.753,1.142,4.452v4.013a3.628,3.628,0,0,0,.967,2.4c.176.234.205.527,0,.674-.561.442-1.5,1.262-2.025,1.7Zm-36.436-6.3a5.237,5.237,0,0,1-.469,2.753,2.073,2.073,0,0,1-1.787,1.172c-1,0-1.582-.762-1.582-1.875,0-2.2,1.962-2.607,3.837-2.607Zm2.578,6.3a.53.53,0,0,1-.615.059,6.468,6.468,0,0,1-1.494-1.728,5.131,5.131,0,0,1-4.247,1.875,3.668,3.668,0,0,1-3.866-4.013,4.384,4.384,0,0,1,2.753-4.218,18.289,18.289,0,0,1,4.862-.908v-.322a3.164,3.164,0,0,0-.322-1.875,1.734,1.734,0,0,0-1.435-.674,1.95,1.95,0,0,0-2.08,1.552c-.059.234-.205.469-.439.469l-2.49-.264a.451.451,0,0,1-.381-.527c.586-3.046,3.31-3.954,5.77-3.954a5.8,5.8,0,0,1,3.9,1.289c1.259,1.172,1.142,2.753,1.142,4.452v4.013a3.629,3.629,0,0,0,.967,2.4c.176.234.205.527,0,.674-.557.439-1.494,1.259-2.021,1.7Z" transform="translate(-163.5 -263.1)" fill="#4d5072" fill-rule="evenodd"/></g></svg>