<svg xmlns="http://www.w3.org/2000/svg" xmlns:xlink="http://www.w3.org/1999/xlink" width="73.544" height="41.9" viewBox="0 0 73.544 41.9"><defs><clipPath id="a"><path d="M873.1-7789.18h73.544v-41.9H873.1Z" transform="translate(-873.097 7831.079)" fill="#4d5072"/></clipPath></defs><g transform="translate(-11.755 -12.76)"><path d="M241.374,301.437h-3.009V289.513h3.009Z" transform="translate(-205.719 -251.236)" fill="#4d5072"/><g transform="translate(11.752 12.761)"><g clip-path="url(#a)"><path d="M996.72-7553.024a5.271,5.271,0,0,0-2.531-.638,3.125,3.125,0,0,0-2.342.872,3.122,3.122,0,0,0-.953,2.31,3.122,3.122,0,0,0,.952,2.311,3.123,3.123,0,0,0,2.343.872,5.329,5.329,0,0,0,2.531-.633v3.2a9.667,9.667,0,0,1-2.742.424,6.074,6.074,0,0,1-4.514-1.712,6.076,6.076,0,0,1-1.841-4.463,6.079,6.079,0,0,1,1.843-4.46,6.079,6.079,0,0,1,4.512-1.711,9.135,9.135,0,0,1,2.742.429Zm-31.407,0a5.231,5.231,0,0,0-2.528-.637,3.124,3.124,0,0,0-2.345.87,3.121,3.121,0,0,0-.955,2.312,3.125,3.125,0,0,0,.954,2.313,3.124,3.124,0,0,0,2.346.87,5.293,5.293,0,0,0,2.528-.633v3.2a9.583,9.583,0,0,1-2.745.424,6.068,6.068,0,0,1-4.512-1.712,6.073,6.073,0,0,1-1.837-4.463,6.075,6.075,0,0,1,1.841-4.458,6.077,6.077,0,0,1,4.509-1.712,9.1,9.1,0,0,1,2.744.427Zm40.873-.592a3.082,3.082,0,0,0-2.218.912,3.081,3.081,0,0,0-.893,2.225,3.082,3.082,0,0,0,.892,2.227,3.083,3.083,0,0,0,2.219.913,3.084,3.084,0,0,0,2.219-.913,3.085,3.085,0,0,0,.894-2.227,3.084,3.084,0,0,0-.9-2.225,3.085,3.085,0,0,0-2.218-.912m6.3,3.136a6.122,6.122,0,0,1-1.836,4.428,6.122,6.122,0,0,1-4.464,1.748,6.122,6.122,0,0,1-4.464-1.747,6.121,6.121,0,0,1-1.836-4.429,6.122,6.122,0,0,1,1.838-4.426,6.121,6.121,0,0,1,4.463-1.746,6.124,6.124,0,0,1,4.462,1.747,6.125,6.125,0,0,1,1.838,4.425m-28.618-3.25a10.307,10.307,0,0,0-2.352-.363c-1.206,0-1.861.4-1.861.977,0,.727.884.98,1.379,1.136l.83.264a3.586,3.586,0,0,1,2.843,3.412c0,3-2.634,4-4.937,4a17.988,17.988,0,0,1-3.247-.326v-2.746a11.266,11.266,0,0,0,2.841.444c1.5,0,2.185-.438,2.185-1.113,0-.6-.6-.953-1.342-1.187-.181-.061-.456-.146-.642-.208-1.676-.53-3.073-1.515-3.073-3.488,0-2.23,1.67-3.728,4.443-3.728a12.886,12.886,0,0,1,2.933.379v2.545Z" transform="translate(-948.555 7581.957)" fill="#4d5072"/><path d="M892.19-7803.77a1.492,1.492,0,0,0-1.494-1.488,1.493,1.493,0,0,0-1.494,1.487v3.131a1.5,1.5,0,0,0,1.494,1.458,1.494,1.494,0,0,0,1.494-1.458Zm8.205-4.108a1.494,1.494,0,0,0-1.494-1.494,1.494,1.494,0,0,0-1.494,1.494v7.238a1.494,1.494,0,0,0,1.494,1.494,1.494,1.494,0,0,0,1.494-1.494v-7.239Zm8.206-5.622a1.493,1.493,0,0,0-1.493-1.489,1.493,1.493,0,0,0-1.494,1.49v15.833a1.494,1.494,0,0,0,1.494,1.457,1.494,1.494,0,0,0,1.494-1.457Zm8.205,5.622a1.494,1.494,0,0,0-1.494-1.494,1.494,1.494,0,0,0-1.494,1.494v7.238a1.494,1.494,0,0,0,1.494,1.494,1.494,1.494,0,0,0,1.494-1.494v-7.239Zm8.2,4.108a1.487,1.487,0,0,0-1.485-1.488,1.491,1.491,0,0,0-1.494,1.487v3.131a1.489,1.489,0,0,0,1.489,1.489A1.489,1.489,0,0,0,925-7800.64Zm8.209-4.108a1.49,1.49,0,0,0-1.489-1.453,1.49,1.49,0,0,0-1.489,1.453v7.238a1.489,1.489,0,0,0,1.489,1.489,1.489,1.489,0,0,0,1.489-1.489v-7.239Zm8.211-5.622a1.489,1.489,0,0,0-1.489-1.488,1.489,1.489,0,0,0-1.489,1.488v15.834a1.49,1.49,0,0,0,.725,1.345,1.493,1.493,0,0,0,1.528,0,1.49,1.49,0,0,0,.725-1.346Zm8.209,5.622a1.5,1.5,0,0,0-.444-1.06,1.5,1.5,0,0,0-1.064-.432,1.49,1.49,0,0,0-1.489,1.49v7.239a1.49,1.49,0,0,0,.435,1.056,1.492,1.492,0,0,0,1.054.438,1.494,1.494,0,0,0,1.065-.433,1.493,1.493,0,0,0,.443-1.061v-7.239Zm8.194,4.108a1.491,1.491,0,0,0-1.491-1.491,1.491,1.491,0,0,0-1.491,1.491v3.13a1.492,1.492,0,0,0,1.491,1.495,1.492,1.492,0,0,0,1.49-1.494v-3.13Z" transform="translate(-887.718 7816.472)" fill="#4d5072"/><path d="M1602.168-7442.036v.187h-.532v1.383h-.219v-1.382h-.534v-.188Zm.111,0h.342l.47,1.288h.008l.455-1.287h.336v1.569h-.224v-1.287h-.008l-.476,1.287h-.207l-.465-1.287h-.01v1.287h-.219Z" transform="translate(-1533.781 7477.906)" fill="#4d5072"/></g></g></g></svg>