<svg width="113" height="30" viewBox="0 0 113 30" fill="none" xmlns="http://www.w3.org/2000/svg">
<path d="M65.084 4.20306L71.3781 6.5953L65.084 8.85823V12.091L75.8643 7.8884V5.3022L65.084 1.09961V4.20306Z" fill="#2C374F"/>
<path d="M7.29803 16.2285C4.28491 16.2285 2.07528 17.5216 1.87441 20.2371H5.22232V20.1725C5.28928 19.2673 6.15974 18.6208 7.09716 18.6854C8.36937 18.6854 8.97199 19.3966 8.97199 20.6251V21.207H7.43195C4.15099 21.207 1.47266 22.1768 1.47266 25.2156V25.3449C1.47266 27.8018 3.34749 28.9009 5.62407 28.9009C7.0302 28.9656 8.30241 28.319 9.10591 27.2846V28.707H12.5208V20.5604C12.4538 17.457 10.2442 16.2285 7.29803 16.2285ZM6.56149 26.5087C5.35624 26.5087 4.82057 25.9268 4.82057 25.0863V24.957C4.82057 23.8578 5.69103 23.4052 7.43195 23.4052H8.83808V24.569C8.90503 25.8621 7.76674 26.5087 6.56149 26.5087Z" fill="#2C374F"/>
<path d="M20.5561 26.3794C18.8821 26.3794 18.0117 25.2802 18.0117 22.8233V22.4354C18.0117 20.0432 19.0161 18.8794 20.5561 18.8794C21.7614 18.8794 22.4309 19.6552 22.6318 20.819H25.9797C25.7119 17.6509 23.3014 16.2285 20.4891 16.2285C17.1412 16.2285 14.4629 18.4268 14.4629 22.5647V22.694C14.4629 26.832 17.0073 28.9009 20.4891 28.9009C23.904 28.9009 25.8458 26.8966 26.1136 24.1811H22.8996C22.6318 25.5389 21.7614 26.3794 20.5561 26.3794Z" fill="#2C374F"/>
<path d="M33.6127 26.3794C31.9388 26.3794 31.0683 25.2802 31.0683 22.8233V22.4354C31.0683 20.0432 32.0727 18.8794 33.6127 18.8794C34.818 18.8794 35.4876 19.6552 35.6885 20.819H39.0364C38.7685 17.6509 36.358 16.2285 33.5458 16.2285C30.1979 16.2285 27.5195 18.4268 27.5195 22.5647V22.694C27.5195 26.832 30.0639 28.9009 33.5458 28.9009C36.9607 28.9009 38.9025 26.8966 39.1033 24.1811H35.9563C35.7554 25.5389 34.818 26.3794 33.6127 26.3794Z" fill="#2C374F"/>
<path d="M46.8043 26.444C45.2642 26.444 44.3268 25.6035 44.1929 23.4052H52.3618V21.9828C52.3618 17.9742 49.7504 16.2285 46.6034 16.2285C43.1885 16.2285 40.5771 18.4914 40.5771 22.5647V22.8233C40.5771 26.8966 43.0546 28.9656 46.6704 28.9656C49.9513 28.9656 51.9601 27.2199 52.2949 24.8923H49.0139C48.88 25.8621 47.8756 26.5733 46.8043 26.444ZM46.6034 18.5561C48.0095 18.5561 48.88 19.332 48.9469 21.1423H44.2599C44.5277 19.2027 45.5321 18.6208 46.6034 18.5561Z" fill="#2C374F"/>
<path d="M61.8698 16.2284C60.2628 16.1637 58.7897 16.9396 58.0531 18.2973V16.487H54.5713V28.6421H58.0531V21.2068C58.0531 21.0775 58.0531 21.0128 58.0531 20.8835C58.1201 19.7844 59.1245 18.8792 60.2627 18.9439C61.535 18.9439 62.1376 19.5904 62.1376 21.0128V28.6421H65.6864V20.4956C65.6864 17.5215 64.1463 16.2284 61.8698 16.2284Z" fill="#2C374F"/>
<path d="M72.2484 24.763V19.0087H74.6589V16.4871H72.2484V12.8018L68.7666 14.2242V16.4871H67.2266V19.0087H68.6996V25.1509C68.6996 27.6078 69.9719 28.8362 72.7171 28.8362C73.3867 28.8362 74.0563 28.7716 74.7259 28.5776V25.9268C74.3241 26.0561 73.9224 26.1207 73.5206 26.1207C72.7171 26.1207 72.2484 25.6681 72.2484 24.763Z" fill="#2C374F"/>
<path d="M84.3671 24.052C84.3671 24.1813 84.3671 24.2459 84.3671 24.3752C84.3001 25.4744 83.2957 26.3795 82.1575 26.3149C80.8852 26.3149 80.3496 25.6683 80.3496 24.2459V16.4873H76.8008V24.6985C76.8008 27.5433 78.4747 28.9011 80.7513 28.9011C82.2914 28.9658 83.6975 28.1899 84.434 26.8321V28.6425H87.9828V16.4873H84.434L84.3671 24.052Z" fill="#2C374F"/>
<path d="M94.0092 18.6854V16.4225H90.5273V28.5777H94.0092V22.3061C94.0092 20.3018 95.4153 19.5906 97.8258 19.5906V16.2285C96.0849 16.2285 94.5448 17.1983 94.0092 18.6854Z" fill="#2C374F"/>
<path d="M110.682 21.9182C110.682 17.9096 108.071 16.2285 104.924 16.2285C101.509 16.2285 98.8975 18.4914 98.8975 22.5647V22.8233C98.8975 26.8966 101.375 28.9656 104.991 28.9656C108.272 28.9656 110.213 27.2199 110.615 24.8923H107.334C107.066 25.9268 106.062 26.5733 104.991 26.5087C103.451 26.5087 102.513 25.6682 102.379 23.4699H110.548V21.9182H110.682ZM102.513 21.1423C102.781 19.138 103.785 18.5561 104.924 18.5561C106.33 18.5561 107.2 19.332 107.267 21.1423H102.513Z" fill="#2C374F"/>
</svg>
