<svg xmlns="http://www.w3.org/2000/svg" width="82.336" height="19.638" viewBox="0 0 82.336 19.638"><path d="M19.338,18.332H14.771l-1.4-3.369H5.764L4.491,18.332H0L6.861,1.315h4.916ZM9.382,5.381l-2.5,6.612h5.24ZM35.925,1.315h3.693V18.332H35.376V7.7l-4.591,5.339h-.649L25.545,7.7V18.332H21.3V1.315H25l5.46,6.313Zm14.442,0c6.213,0,9.406,3.867,9.406,8.533,0,4.89-3.094,8.484-9.88,8.484H42.856V1.315ZM47.1,15.213h2.769c4.267,0,5.539-2.9,5.539-5.391,0-2.92-1.572-5.389-5.589-5.389H47.1ZM68.212,5.35,62.863,0H82.336V19.474l-5.349-5.349V5.35Zm-.006,1.072L62.7,11.929v7.709h7.708l5.507-5.507H68.206Z" fill="#4d5072"/></svg>