<?xml version="1.0" encoding="UTF-8"?> <svg xmlns="http://www.w3.org/2000/svg" fill="#4d5072" width="98.4" height="29.512" viewBox="0 0 98.4 29.512"><path d="M15.009.277A14.756,14.756,0,1,0,29.766,15.033,14.756,14.756,0,0,0,15.009.277h0Zm6.767,21.282a.919.919,0,0,1-1.265.3c-3.465-2.116-7.826-2.6-12.963-1.422a.92.92,0,0,1-.409-1.794c5.621-1.284,10.443-.731,14.332,1.646A.92.92,0,0,1,21.776,21.559Zm1.806-4.018A1.151,1.151,0,0,1,22,17.921,19.368,19.368,0,0,0,7.3,16.2,1.15,1.15,0,1,1,6.627,14,21.528,21.528,0,0,1,23.2,15.96a1.15,1.15,0,0,1,.379,1.582Zm.155-4.184c-4.756-2.825-12.6-3.085-17.143-1.706a1.38,1.38,0,1,1-.8-2.641c5.212-1.582,13.877-1.277,19.353,1.974a1.38,1.38,0,1,1-1.408,2.374ZM40.4,13.9c-2.548-.608-3-1.034-3-1.93,0-.847.8-1.416,1.982-1.416a5.791,5.791,0,0,1,3.482,1.323.168.168,0,0,0,.236-.037l1.244-1.754a.167.167,0,0,0-.032-.227,7.528,7.528,0,0,0-4.893-1.7c-2.751,0-4.673,1.651-4.673,4.013,0,2.533,1.658,3.43,4.523,4.122,2.437.562,2.849,1.032,2.849,1.873,0,.932-.832,1.512-2.171,1.512a5.86,5.86,0,0,1-4.058-1.676.173.173,0,0,0-.122-.041.165.165,0,0,0-.115.058l-1.4,1.66a.168.168,0,0,0,.016.233,8.315,8.315,0,0,0,5.618,2.153c2.964,0,4.879-1.619,4.879-4.127.005-2.116-1.262-3.288-4.365-4.042l-.005,0Zm11.076-2.513a4,4,0,0,0-3.209,1.543V11.762a.166.166,0,0,0-.166-.167H45.82a.166.166,0,0,0-.166.167V24.731a.167.167,0,0,0,.166.167H48.1a.167.167,0,0,0,.166-.167V20.638a4.1,4.1,0,0,0,3.209,1.452c2.388,0,4.805-1.838,4.805-5.351s-2.414-5.353-4.8-5.353h0Zm2.152,5.352a2.75,2.75,0,0,1-2.68,3.038,2.835,2.835,0,0,1-2.737-3.038A2.835,2.835,0,0,1,50.948,13.7a2.78,2.78,0,0,1,2.68,3.037Zm8.847-5.352a5.363,5.363,0,1,0,5.464,5.352,5.38,5.38,0,0,0-5.464-5.352Zm0,8.408a2.9,2.9,0,0,1-2.869-3.056,2.834,2.834,0,0,1,2.832-3.019,2.91,2.91,0,0,1,2.886,3.057,2.84,2.84,0,0,1-2.849,3.018Zm12.03-8.2H71.994V9.028a.166.166,0,0,0-.166-.167H69.547a.168.168,0,0,0-.167.167v2.567h-1.1a.166.166,0,0,0-.166.167v1.961a.167.167,0,0,0,.166.167h1.1v5.074c0,2.049,1.02,3.089,3.034,3.089a4.156,4.156,0,0,0,2.136-.532.163.163,0,0,0,.085-.144V19.508a.166.166,0,0,0-.079-.141.162.162,0,0,0-.162-.007,2.88,2.88,0,0,1-1.339.322c-.731,0-1.059-.333-1.059-1.077V13.891h2.511a.166.166,0,0,0,.166-.167v-1.96a.162.162,0,0,0-.164-.167h0Zm8.747.01V11.29c0-.927.356-1.341,1.152-1.341a3.855,3.855,0,0,1,1.286.237.166.166,0,0,0,.219-.159V8.1a.165.165,0,0,0-.118-.16,6.25,6.25,0,0,0-1.9-.272c-2.106,0-3.221,1.187-3.221,3.43v.483h-1.1a.168.168,0,0,0-.167.167v1.971a.168.168,0,0,0,.167.167h1.1v7.825a.167.167,0,0,0,.167.167h2.28a.166.166,0,0,0,.167-.167V13.891h2.13l3.263,7.824c-.37.821-.735.985-1.232.985a2.619,2.619,0,0,1-1.258-.358.182.182,0,0,0-.132-.012.166.166,0,0,0-.1.09l-.774,1.7a.167.167,0,0,0,.072.217,4.8,4.8,0,0,0,2.435.624c1.685,0,2.617-.786,3.436-2.9L95.09,11.833a.167.167,0,0,0-.153-.228H92.561a.167.167,0,0,0-.159.112l-2.433,6.949L87.3,11.713a.166.166,0,0,0-.155-.107h-3.9Zm-5.071-.01H75.9a.168.168,0,0,0-.167.167v9.952a.167.167,0,0,0,.167.167h2.282a.167.167,0,0,0,.167-.167V11.763a.167.167,0,0,0-.167-.167h0ZM77.053,7.063A1.636,1.636,0,1,0,78.688,8.7,1.636,1.636,0,0,0,77.053,7.063ZM97.039,14.8a1.61,1.61,0,1,1,1.614-1.615A1.6,1.6,0,0,1,97.039,14.8Zm.009-3.06a1.45,1.45,0,1,0,1.436,1.445,1.436,1.436,0,0,0-1.436-1.445Zm.356,1.61.455.636h-.384l-.409-.583h-.351v.583h-.321V12.3h.751c.393,0,.65.2.65.538a.5.5,0,0,1-.389.512Zm-.271-.76h-.418v.533h.418c.208,0,.333-.1.333-.267S97.34,12.585,97.132,12.585Z" transform="translate(-0.253 -0.277)"></path></svg> 