<svg xmlns="http://www.w3.org/2000/svg" width="121.516" height="23.743" viewBox="0 0 121.516 23.743"><g transform="translate(-0.024 -0.003)"><path d="M16.933,8.557a9.117,9.117,0,0,1,12.908.956,9.549,9.549,0,0,1,.478,12.908l-7.171,7.171c-1.434-.956-3.824-2.868-2.868-4.781,1.912-2.39,4.3-4.3,6.215-6.693,1.434-1.912.478-5.737-2.39-6.215a3.982,3.982,0,0,0-5.259,4.3c0,2.39,1.912,3.824,3.346,5.259-1.434,1.434-3.346,2.39-3.346,4.3-1.434-1.912-3.824-3.346-4.781-5.737A9.577,9.577,0,0,1,16.933,8.557Z" transform="translate(-13.208 -6.319)" fill="#4d5072" fill-rule="evenodd"/><g transform="translate(23.978 1.205)"><path d="M73.709,9.873c.478-1.434,1.912-.956,2.868-.956V26.6H73.709V25.17a6.474,6.474,0,0,1-8.127,0,6.8,6.8,0,0,1-.478-9.561,6.584,6.584,0,0,1,8.6-.956Zm-4.3,6.215c-2.39.478-4.3,3.824-2.39,6.215a3.6,3.6,0,0,0,6.215-.478c1.431-2.391-.96-5.738-3.828-5.738Z" transform="translate(-63.366 -8.84)" fill="#4d5072" fill-rule="evenodd"/></g><path d="M96,18.688h2.868v.956c.956-1.434,2.868-1.434,4.781-.956-.478.956-.956,1.434-.956,2.39-1.912-.478-3.824.478-3.824,1.912v7.171C98.39,31.6,96.956,31.6,96,31.6Z" transform="translate(-56.421 -12.626)" fill="#4d5072" fill-rule="evenodd"/><g transform="translate(46.952 5.631)"><path d="M116,18.529c4.781-1.912,9.561,2.868,8.6,7.649s-7.649,7.171-11,3.824c-3.824-3.346-2.39-10.517,2.39-11.473Zm1.434,2.39a4.723,4.723,0,0,0-3.346,3.346,3.659,3.659,0,0,0,3.824,4.3c1.912,0,3.824-1.434,3.824-3.346,0-2.388-2.389-4.778-4.3-4.3Z" transform="translate(-111.422 -18.097)" fill="#4d5072" fill-rule="evenodd"/></g><g transform="translate(62.048 5.838)"><path d="M143,18.756h2.868v.956a6.584,6.584,0,0,1,8.6.956A6.234,6.234,0,0,1,154,29.751c-1.912,2.39-5.737,2.39-8.127.956v4.3c-.478,1.434-1.912,1.434-2.868,1.434V18.756Zm6.215,2.39c-2.868.478-4.3,3.824-2.868,5.737,1.434,2.39,5.259,2.39,6.215,0C154.473,24.492,152.083,21.146,149.215,21.146Z" transform="translate(-143 -18.532)" fill="#4d5072" fill-rule="evenodd"/></g><path d="M177.44,19.09a6.494,6.494,0,0,1,7.649.956c-.478.478-.956,1.434-1.912,1.912a3.7,3.7,0,0,0-5.737,1.434,3.922,3.922,0,0,0,3.346,5.259c.956,0,1.912-.478,2.868-.478a3.733,3.733,0,0,1,1.912,1.912c-3.346,2.868-9.083,1.912-10.517-2.39C173.137,24.826,174.571,21,177.44,19.09Z" transform="translate(-97.226 -12.549)" fill="#4d5072" fill-rule="evenodd"/><g transform="translate(88.004 5.584)"><path d="M197.632,27.083C196.2,22.781,199.544,18,203.847,18a7.636,7.636,0,0,1,7.171,6.215v7.171c-1.434,0-2.39,0-3.346-.956-3.346,2.39-8.6.478-10.039-3.346Zm6.215-6.215a4.2,4.2,0,0,0-2.868,6.215c1.912,2.39,5.737,1.912,6.693-.478a4.213,4.213,0,0,0-3.825-5.737Z" transform="translate(-197.295 -18)" fill="#4d5072" fill-rule="evenodd"/></g><path d="M230,18.712h2.868v.956c1.434-1.912,4.781-1.434,6.693.478,2.39-2.868,7.171-1.912,8.127,1.434.478,2.868,0,6.215,0,9.083,0,.956-1.434.956-2.868.956,0-2.868.478-5.737,0-8.6a2.187,2.187,0,0,0-4.3,0v8.6h-2.868a57.856,57.856,0,0,0-.478-9.083c-.478-1.912-3.824-1.434-3.824.478a51.963,51.963,0,0,0-.478,8.6H230Z" transform="translate(-126.361 -12.649)" fill="#4d5072" fill-rule="evenodd"/></g></svg>