<svg xmlns="http://www.w3.org/2000/svg" width="81.828" height="24.845" viewBox="0 0 81.828 24.845"><path d="M0,17.57V.364H3.022V17.57ZM10.759,5.088a6.411,6.411,0,1,0,.03,12.818,6.41,6.41,0,1,0-.03-12.819ZM10.724,8A3.462,3.462,0,1,1,8.273,9.028,3.491,3.491,0,0,1,10.724,8ZM24.888,5.088a6.411,6.411,0,1,0,.03,12.818,6.346,6.346,0,0,0,6.5-6.437,4.825,4.825,0,0,0-.985-3.284l.838-.287V5.445H26.984a6.477,6.477,0,0,0-2.1-.357ZM24.853,8A3.462,3.462,0,1,1,22.4,9.028,3.491,3.491,0,0,1,24.853,8Zm3.5,10.408a3.488,3.488,0,0,1-6.976,0H18.31A6.332,6.332,0,0,0,24.9,24.84a6.339,6.339,0,0,0,6.5-6.428Zm4.282-.841V5.445h3.023V17.57Zm5.957,0V8.161H36.971V5.445h1.621V1.722h3.022V5.445h1.665V8.161H41.614V17.57ZM36.141,2a2,2,0,1,1-2-2A2,2,0,0,1,36.141,2ZM50.074,5.08a6.277,6.277,0,0,0-6.4,6.508,6.089,6.089,0,0,0,6.467,6.327,7.176,7.176,0,0,0,5.495-2.3l-2.02-2.023a5.382,5.382,0,0,1-3.436,1.646,3.268,3.268,0,0,1-3.31-2.519h9.418v-.832c0-3.321-1.922-6.806-6.209-6.806Zm-.1,2.661a3,3,0,0,1,3.135,2.524h-6.33a3.154,3.154,0,0,1,3.2-2.524ZM63.843,17.916a6.42,6.42,0,1,1-.013-12.84A6.647,6.647,0,0,1,69.013,7.5L66.9,9.6a4.314,4.314,0,0,0-3.088-1.578,3.4,3.4,0,0,0-3.484,3.464A3.428,3.428,0,0,0,63.788,15a4.3,4.3,0,0,0,3.112-1.58l2.13,2.1a6.624,6.624,0,0,1-5.188,2.4h0Zm6.288-.337V.32h3.022V6.661a4.62,4.62,0,0,1,3.675-1.584c3.165,0,5,2.353,5,5.362v7.14H78.8V10.9a2.551,2.551,0,0,0-2.653-2.86,2.789,2.789,0,0,0-3,3.017v6.527H70.131Z" fill="#4d5072"/></svg>